<svg xmlns="http://www.w3.org/2000/svg" xmlns:xlink="http://www.w3.org/1999/xlink" width="500" zoomAndPan="magnify" viewBox="0 0 375 374.999991" height="500" preserveAspectRatio="xMidYMid meet" version="1.0"><defs><clipPath id="42027401e0"><path d="M 8.273438 8.273438 L 366.527344 8.273438 L 366.527344 366.527344 L 8.273438 366.527344 Z M 8.273438 8.273438 " clip-rule="nonzero"/></clipPath><clipPath id="b5f4ebce2a"><path d="M 17.441406 17.441406 L 357.558594 17.441406 L 357.558594 357.558594 L 17.441406 357.558594 Z M 17.441406 17.441406 " clip-rule="nonzero"/></clipPath><clipPath id="1dde8199f8"><path d="M 49.121094 49.121094 L 325.75 49.121094 L 325.75 325.75 L 49.121094 325.75 Z M 49.121094 49.121094 " clip-rule="nonzero"/></clipPath></defs><g clip-path="url(#42027401e0)"><path fill="#4084f4" d="M 187.496094 366.722656 C 139.625 366.722656 94.617188 348.078125 60.765625 314.226562 C 26.914062 280.375 8.273438 235.371094 8.273438 187.496094 C 8.273438 139.625 26.914062 94.617188 60.765625 60.765625 C 94.617188 26.914062 139.625 8.273438 187.496094 8.273438 C 235.367188 8.273438 280.375 26.914062 314.226562 60.765625 C 348.078125 94.617188 366.722656 139.625 366.722656 187.496094 C 366.722656 214.160156 359.246094 238.886719 358.902344 240.011719 C 355.917969 249.78125 352.070312 259.347656 347.453125 268.476562 L 365.015625 357.273438 C 365.363281 359.023438 364.824219 360.835938 363.574219 362.109375 C 362.324219 363.386719 360.527344 363.964844 358.769531 363.65625 L 267.828125 347.71875 C 258.210938 352.558594 248.113281 356.539062 237.792969 359.558594 C 236.78125 359.855469 212.90625 366.722656 187.496094 366.722656 Z M 187.496094 366.722656 " fill-opacity="1" fill-rule="nonzero"/></g><g clip-path="url(#b5f4ebce2a)"><path fill="#ffffff" d="M 187.5 357.558594 C 142.074219 357.558594 99.371094 339.867188 67.25 307.746094 C 35.128906 275.628906 17.441406 232.921875 17.441406 187.5 C 17.441406 142.074219 35.128906 99.371094 67.25 67.25 C 99.371094 35.128906 142.074219 17.441406 187.5 17.441406 C 232.921875 17.441406 275.628906 35.128906 307.75 67.25 C 339.867188 99.371094 357.554688 142.074219 357.554688 187.5 C 357.554688 212.800781 350.464844 236.261719 350.136719 237.328125 C 347.304688 246.597656 343.652344 255.671875 339.273438 264.335938 L 355.9375 348.59375 C 356.265625 350.253906 355.757812 351.972656 354.570312 353.183594 C 353.386719 354.394531 351.679688 354.941406 350.011719 354.648438 L 263.722656 339.523438 C 254.59375 344.121094 245.015625 347.898438 235.222656 350.761719 C 234.261719 351.039062 211.609375 357.558594 187.5 357.558594 Z M 187.5 357.558594 " fill-opacity="1" fill-rule="nonzero"/></g><path fill="#4084f4" d="M 201.765625 176.070312 C 195.59375 176.070312 190.589844 171.0625 190.589844 164.890625 C 190.589844 158.71875 195.59375 153.714844 201.765625 153.714844 C 207.941406 153.714844 212.945312 158.71875 212.945312 164.890625 C 212.945312 171.0625 207.941406 176.070312 201.765625 176.070312 Z M 177.1875 215.207031 C 174.0625 215.207031 171.527344 212.671875 171.527344 209.546875 C 171.527344 206.421875 174.0625 203.886719 177.1875 203.886719 C 180.3125 203.886719 182.847656 206.421875 182.847656 209.546875 C 182.847656 212.671875 180.3125 215.207031 177.1875 215.207031 Z M 187.484375 129.304688 C 155.351562 129.304688 129.304688 155.351562 129.304688 187.484375 C 129.304688 219.617188 155.351562 245.664062 187.484375 245.664062 C 219.617188 245.664062 245.664062 219.617188 245.664062 187.484375 C 245.664062 155.351562 219.617188 129.304688 187.484375 129.304688 " fill-opacity="1" fill-rule="nonzero"/><path fill="#000000" d="M 177.1875 215.207031 C 174.0625 215.207031 171.527344 212.671875 171.527344 209.546875 C 171.527344 206.421875 174.0625 203.886719 177.1875 203.886719 C 180.3125 203.886719 182.847656 206.421875 182.847656 209.546875 C 182.847656 212.671875 180.3125 215.207031 177.1875 215.207031 Z M 211.671875 159.714844 C 212.484375 161.261719 212.945312 163.019531 212.945312 164.890625 C 212.945312 171.0625 207.941406 176.070312 201.765625 176.070312 C 195.59375 176.070312 190.589844 171.0625 190.589844 164.890625 C 190.589844 158.71875 195.59375 153.714844 201.765625 153.714844 C 201.917969 153.714844 202.066406 153.71875 202.21875 153.726562 C 197.707031 151.753906 192.722656 150.65625 187.484375 150.65625 C 167.144531 150.65625 150.65625 167.144531 150.65625 187.484375 C 150.65625 207.828125 167.144531 224.3125 187.484375 224.3125 C 207.828125 224.3125 224.3125 207.828125 224.3125 187.484375 C 224.3125 176.402344 219.417969 166.464844 211.671875 159.714844 " fill-opacity="1" fill-rule="nonzero"/><g clip-path="url(#1dde8199f8)"><path fill="#4084f4" d="M 187.484375 254.308594 C 150.578125 254.308594 120.660156 224.390625 120.660156 187.484375 C 120.660156 150.578125 150.578125 120.660156 187.484375 120.660156 C 224.390625 120.660156 254.308594 150.578125 254.308594 187.484375 C 254.308594 224.390625 224.390625 254.308594 187.484375 254.308594 Z M 282.546875 172.503906 L 314.609375 172.503906 C 315.570312 174.480469 317.589844 175.847656 319.933594 175.847656 C 323.207031 175.847656 325.859375 173.191406 325.859375 169.921875 C 325.859375 166.652344 323.207031 163.996094 319.933594 163.996094 C 317.589844 163.996094 315.570312 165.363281 314.609375 167.34375 L 280.410156 167.34375 L 268.699219 179.050781 L 260.410156 179.050781 C 260.15625 176.832031 259.804688 174.640625 259.359375 172.480469 L 263.183594 172.480469 L 279.660156 156.007812 L 294.902344 156.007812 C 295.863281 157.984375 297.882812 159.347656 300.226562 159.347656 C 303.5 159.347656 306.152344 156.695312 306.152344 153.425781 C 306.152344 150.15625 303.5 147.5 300.226562 147.5 C 297.882812 147.5 295.863281 148.867188 294.902344 150.847656 L 277.519531 150.847656 L 261.046875 167.320312 L 258.089844 167.320312 C 256.769531 162.695312 255.007812 158.253906 252.855469 154.046875 L 269.421875 137.480469 L 289.566406 137.480469 L 309.328125 117.71875 C 309.9375 117.929688 310.585938 118.050781 311.269531 118.050781 C 314.542969 118.050781 317.191406 115.398438 317.191406 112.128906 C 317.191406 108.855469 314.542969 106.203125 311.269531 106.203125 C 307.996094 106.203125 305.347656 108.855469 305.347656 112.128906 C 305.347656 112.808594 305.46875 113.460938 305.675781 114.070312 L 287.429688 132.320312 L 267.285156 132.320312 L 250.234375 149.367188 C 244.117188 139.316406 235.652344 130.855469 225.601562 124.734375 L 242.652344 107.6875 L 242.652344 87.542969 L 260.902344 69.292969 C 261.511719 69.503906 262.160156 69.625 262.84375 69.625 C 266.113281 69.625 268.765625 66.972656 268.765625 63.699219 C 268.765625 60.429688 266.113281 57.777344 262.84375 57.777344 C 259.570312 57.777344 256.921875 60.429688 256.921875 63.699219 C 256.921875 64.382812 257.039062 65.035156 257.253906 65.644531 L 237.492188 85.40625 L 237.492188 105.546875 L 220.925781 122.117188 C 216.714844 119.960938 212.277344 118.199219 207.648438 116.882812 L 207.648438 113.925781 L 224.125 97.449219 L 224.125 80.070312 C 226.101562 79.109375 227.46875 77.085938 227.46875 74.742188 C 227.46875 71.472656 224.816406 68.820312 221.546875 68.820312 C 218.273438 68.820312 215.621094 71.472656 215.621094 74.742188 C 215.621094 77.085938 216.988281 79.109375 218.964844 80.070312 L 218.964844 95.3125 L 202.488281 111.789062 L 202.488281 115.613281 C 200.332031 115.164062 198.140625 114.816406 195.921875 114.5625 L 195.921875 106.273438 L 207.628906 94.5625 L 207.628906 60.363281 C 209.605469 59.402344 210.972656 57.382812 210.972656 55.035156 C 210.972656 51.765625 208.320312 49.113281 205.050781 49.113281 C 201.777344 49.113281 199.125 51.765625 199.125 55.035156 C 199.125 57.382812 200.492188 59.402344 202.46875 60.363281 L 202.46875 92.421875 L 190.757812 104.132812 L 190.757812 114.152344 C 189.671875 114.105469 188.582031 114.078125 187.484375 114.078125 C 186.390625 114.078125 185.296875 114.105469 184.214844 114.152344 L 184.214844 104.132812 L 172.503906 92.421875 L 172.503906 87.175781 C 174.480469 86.21875 175.847656 84.195312 175.847656 81.851562 C 175.847656 78.578125 173.191406 75.925781 169.921875 75.925781 C 166.652344 75.925781 163.996094 78.578125 163.996094 81.851562 C 163.996094 84.195312 165.363281 86.21875 167.339844 87.175781 L 167.339844 94.5625 L 179.050781 106.273438 L 179.050781 114.5625 C 176.832031 114.816406 174.640625 115.164062 172.484375 115.613281 L 172.484375 111.789062 L 156.007812 95.3125 L 156.007812 65.828125 C 157.984375 64.867188 159.347656 62.847656 159.347656 60.5 C 159.347656 57.230469 156.695312 54.578125 153.425781 54.578125 C 150.15625 54.578125 147.5 57.230469 147.5 60.5 C 147.5 62.847656 148.867188 64.867188 150.84375 65.828125 L 150.84375 97.449219 L 167.320312 113.925781 L 167.320312 116.882812 C 162.695312 118.199219 158.253906 119.960938 154.046875 122.117188 L 137.480469 105.546875 L 137.480469 85.40625 L 117.71875 65.644531 C 117.929688 65.035156 118.050781 64.382812 118.050781 63.699219 C 118.050781 60.429688 115.398438 57.777344 112.128906 57.777344 C 108.855469 57.777344 106.203125 60.429688 106.203125 63.699219 C 106.203125 66.972656 108.855469 69.625 112.128906 69.625 C 112.808594 69.625 113.460938 69.503906 114.070312 69.292969 L 132.316406 87.542969 L 132.316406 107.6875 L 149.367188 124.734375 C 139.316406 130.855469 130.855469 139.316406 124.738281 149.367188 L 107.6875 132.320312 L 87.542969 132.320312 L 69.292969 114.070312 C 69.503906 113.460938 69.625 112.808594 69.625 112.128906 C 69.625 108.855469 66.972656 106.203125 63.703125 106.203125 C 60.429688 106.203125 57.777344 108.855469 57.777344 112.128906 C 57.777344 115.398438 60.429688 118.050781 63.703125 118.050781 C 64.382812 118.050781 65.035156 117.929688 65.644531 117.71875 L 85.40625 137.480469 L 105.550781 137.480469 L 122.117188 154.046875 C 119.960938 158.253906 118.199219 162.695312 116.882812 167.320312 L 113.925781 167.320312 L 97.449219 150.847656 L 80.070312 150.847656 C 79.109375 148.867188 77.089844 147.5 74.742188 147.5 C 71.472656 147.5 68.820312 150.15625 68.820312 153.425781 C 68.820312 156.695312 71.472656 159.347656 74.742188 159.347656 C 77.089844 159.347656 79.109375 157.984375 80.070312 156.007812 L 95.3125 156.007812 L 111.789062 172.480469 L 115.613281 172.480469 C 115.164062 174.640625 114.816406 176.832031 114.5625 179.050781 L 106.273438 179.050781 L 94.558594 167.34375 L 60.363281 167.34375 C 59.402344 165.363281 57.382812 163.996094 55.035156 163.996094 C 51.765625 163.996094 49.113281 166.652344 49.113281 169.921875 C 49.113281 173.191406 51.765625 175.847656 55.035156 175.847656 C 57.382812 175.847656 59.402344 174.480469 60.363281 172.503906 L 92.421875 172.503906 L 104.132812 184.210938 L 114.152344 184.210938 C 114.105469 185.296875 114.078125 186.390625 114.078125 187.484375 C 114.078125 188.582031 114.105469 189.671875 114.152344 190.757812 L 104.132812 190.757812 L 92.421875 202.46875 L 87.175781 202.46875 C 86.214844 200.492188 84.195312 199.125 81.851562 199.125 C 78.578125 199.125 75.925781 201.777344 75.925781 205.050781 C 75.925781 208.320312 78.578125 210.972656 81.851562 210.972656 C 84.195312 210.972656 86.214844 209.605469 87.175781 207.628906 L 94.558594 207.628906 L 106.273438 195.921875 L 114.5625 195.921875 C 114.816406 198.140625 115.164062 200.332031 115.613281 202.488281 L 111.789062 202.488281 L 95.3125 218.964844 L 65.828125 218.964844 C 64.867188 216.988281 62.847656 215.621094 60.5 215.621094 C 57.230469 215.621094 54.578125 218.273438 54.578125 221.546875 C 54.578125 224.816406 57.230469 227.46875 60.5 227.46875 C 62.847656 227.46875 64.867188 226.101562 65.828125 224.125 L 97.449219 224.125 L 113.925781 207.648438 L 116.882812 207.648438 C 118.199219 212.277344 119.960938 216.714844 122.117188 220.925781 L 105.550781 237.492188 L 85.40625 237.492188 L 65.644531 257.253906 C 65.035156 257.039062 64.382812 256.921875 63.703125 256.921875 C 60.429688 256.921875 57.777344 259.570312 57.777344 262.84375 C 57.777344 266.117188 60.429688 268.765625 63.703125 268.765625 C 66.972656 268.765625 69.625 266.117188 69.625 262.84375 C 69.625 262.160156 69.503906 261.511719 69.292969 260.902344 L 87.542969 242.652344 L 107.6875 242.652344 L 124.738281 225.601562 C 130.855469 235.652344 139.316406 244.117188 149.367188 250.234375 L 132.316406 267.285156 L 132.316406 287.429688 L 114.070312 305.675781 C 113.460938 305.46875 112.808594 305.347656 112.128906 305.347656 C 108.855469 305.347656 106.203125 307.996094 106.203125 311.269531 C 106.203125 314.542969 108.855469 317.191406 112.128906 317.191406 C 115.398438 317.191406 118.050781 314.542969 118.050781 311.269531 C 118.050781 310.585938 117.929688 309.9375 117.71875 309.328125 L 137.480469 289.566406 L 137.480469 269.421875 L 154.046875 252.855469 C 158.253906 255.007812 162.695312 256.769531 167.320312 258.089844 L 167.320312 261.046875 L 150.84375 277.519531 L 150.84375 309.144531 C 148.867188 310.105469 147.5 312.125 147.5 314.46875 C 147.5 317.742188 150.15625 320.390625 153.425781 320.390625 C 156.695312 320.390625 159.347656 317.742188 159.347656 314.46875 C 159.347656 312.125 157.984375 310.105469 156.007812 309.144531 L 156.007812 279.660156 L 172.484375 263.183594 L 172.484375 259.355469 C 174.640625 259.804688 176.832031 260.15625 179.050781 260.410156 L 179.050781 268.699219 L 167.339844 280.410156 L 167.339844 287.796875 C 165.363281 288.753906 163.996094 290.777344 163.996094 293.121094 C 163.996094 296.394531 166.652344 299.042969 169.921875 299.042969 C 173.191406 299.042969 175.847656 296.394531 175.847656 293.121094 C 175.847656 290.777344 174.480469 288.753906 172.503906 287.796875 L 172.503906 282.546875 L 184.214844 270.835938 L 184.214844 260.820312 C 185.296875 260.867188 186.390625 260.894531 187.484375 260.894531 C 188.582031 260.894531 189.671875 260.867188 190.757812 260.820312 L 190.757812 270.835938 L 202.46875 282.546875 L 202.46875 314.609375 C 200.492188 315.570312 199.125 317.589844 199.125 319.933594 C 199.125 323.207031 201.777344 325.859375 205.050781 325.859375 C 208.320312 325.859375 210.972656 323.207031 210.972656 319.933594 C 210.972656 317.589844 209.605469 315.570312 207.628906 314.609375 L 207.628906 280.410156 L 195.921875 268.699219 L 195.921875 260.410156 C 198.140625 260.15625 200.332031 259.804688 202.488281 259.355469 L 202.488281 263.183594 L 218.964844 279.660156 L 218.964844 294.902344 C 216.988281 295.863281 215.621094 297.882812 215.621094 300.226562 C 215.621094 303.5 218.273438 306.152344 221.546875 306.152344 C 224.816406 306.152344 227.46875 303.5 227.46875 300.226562 C 227.46875 297.882812 226.101562 295.863281 224.125 294.902344 L 224.125 277.519531 L 207.648438 261.046875 L 207.648438 258.089844 C 212.277344 256.769531 216.714844 255.007812 220.925781 252.855469 L 237.492188 269.421875 L 237.492188 289.566406 L 257.253906 309.328125 C 257.039062 309.9375 256.921875 310.585938 256.921875 311.269531 C 256.921875 314.542969 259.570312 317.191406 262.84375 317.191406 C 266.113281 317.191406 268.765625 314.542969 268.765625 311.269531 C 268.765625 307.996094 266.113281 305.347656 262.84375 305.347656 C 262.160156 305.347656 261.511719 305.46875 260.902344 305.675781 L 242.652344 287.429688 L 242.652344 267.285156 L 225.601562 250.234375 C 235.652344 244.117188 244.117188 235.652344 250.234375 225.601562 L 267.285156 242.652344 L 287.429688 242.652344 L 305.675781 260.902344 C 305.46875 261.511719 305.347656 262.160156 305.347656 262.84375 C 305.347656 266.117188 307.996094 268.765625 311.269531 268.765625 C 314.542969 268.765625 317.191406 266.117188 317.191406 262.84375 C 317.191406 259.570312 314.542969 256.921875 311.269531 256.921875 C 310.585938 256.921875 309.9375 257.039062 309.328125 257.253906 L 289.566406 237.492188 L 269.421875 237.492188 L 252.855469 220.925781 C 255.007812 216.714844 256.769531 212.277344 258.089844 207.648438 L 261.046875 207.648438 L 277.519531 224.125 L 309.144531 224.125 C 310.105469 226.101562 312.125 227.46875 314.46875 227.46875 C 317.742188 227.46875 320.390625 224.816406 320.390625 221.546875 C 320.390625 218.273438 317.742188 215.621094 314.46875 215.621094 C 312.125 215.621094 310.105469 216.988281 309.144531 218.964844 L 279.660156 218.964844 L 263.183594 202.488281 L 259.359375 202.488281 C 259.804688 200.332031 260.15625 198.140625 260.410156 195.921875 L 268.699219 195.921875 L 280.410156 207.628906 L 287.796875 207.628906 C 288.753906 209.605469 290.777344 210.972656 293.121094 210.972656 C 296.390625 210.972656 299.042969 208.320312 299.042969 205.050781 C 299.042969 201.777344 296.390625 199.125 293.121094 199.125 C 290.777344 199.125 288.753906 200.492188 287.796875 202.46875 L 282.546875 202.46875 L 270.835938 190.757812 L 260.820312 190.757812 C 260.867188 189.671875 260.894531 188.582031 260.894531 187.484375 C 260.894531 186.390625 260.867188 185.296875 260.820312 184.210938 L 270.835938 184.210938 L 282.546875 172.503906 " fill-opacity="1" fill-rule="nonzero"/></g></svg>